<?xml version="1.0" encoding="utf-8"?>
<!-- Generator: Adobe Illustrator 26.0.2, SVG Export Plug-In . SVG Version: 6.00 Build 0)  -->
<svg version="1.1" id="Layer_1" xmlns="http://www.w3.org/2000/svg" xmlns:xlink="http://www.w3.org/1999/xlink" x="0px" y="0px"
	 viewBox="0 0 480 480" style="enable-background:new 0 0 480 480;" xml:space="preserve">
<path d="M240,0C107.5,0,0,107.5,0,240c0,44.3,12.1,85.9,33.1,121.5L2.3,476.5l120.7-27c34.6,19.4,74.5,30.4,117,30.4
	c132.5,0,240-107.5,240-240S372.5,0,240,0z M240,43.6c108.4,0,196.4,87.9,196.4,196.4S348.4,436.4,240,436.4
	c-40.7,0-78.5-12.4-109.9-33.6l-67,15l17-63.9C57.3,321.7,43.6,282.5,43.6,240C43.6,131.6,131.6,43.6,240,43.6z M157.9,128
	c-4,0-10.4,1.5-15.9,7.4c-5.4,6-20.7,20.3-20.7,49.6c0,29.2,21.2,57.5,24.2,61.4c3,4,41.1,66,101.6,89.8
	c50.1,19.7,60.4,15.8,71.4,14.8c10.9-0.9,35.2-14.3,40.1-28.2c4.9-13.9,4.9-25.8,3.4-28.3c-1.5-2.4-5.4-3.9-11.4-6.9
	c-6-3-35.2-17.4-40.7-19.3c-5.4-2-9.4-3-13.3,3c-4,6-15.4,19.4-18.9,23.3c-3.4,4-6.9,4.5-12.8,1.5c-6-3-25.1-9.2-47.8-29.5
	c-17.7-15.7-29.6-35.2-33-41.1c-3.4-5.9-0.4-9.2,2.6-12.2c2.7-2.6,6-6.9,8.9-10.3c2.9-3.5,3.9-5.9,5.9-10c2.1-3.9,1-7.4-0.5-10.4
	c-1.5-3-13-32.4-18.3-44.1c-4.5-9.9-9.1-10.2-13.4-10.2C165.8,128,161.8,128,157.9,128z"/>
</svg>
